<mxfile host="app.diagrams.net" modified="2022-04-25T19:00:00.481Z" agent="5.0 (X11)" etag="8slQPidq4rvwCIHdOn2i" version="17.4.6" type="github">
  <diagram id="7UcuaprX5ksXwtgCeK8K" name="Page-1">
    <mxGraphModel dx="1350" dy="1864" grid="1" gridSize="10" guides="1" tooltips="1" connect="1" arrows="1" fold="1" page="1" pageScale="1" pageWidth="850" pageHeight="1100" math="0" shadow="0">
      <root>
        <mxCell id="0" />
        <mxCell id="1" parent="0" />
        <mxCell id="3nwZLt_dr9k0LihJyEEM-1" value="Organiser" style="swimlane;fontStyle=1;align=center;verticalAlign=top;childLayout=stackLayout;horizontal=1;startSize=26;horizontalStack=0;resizeParent=1;resizeParentMax=0;resizeLast=0;collapsible=1;marginBottom=0;" vertex="1" parent="1">
          <mxGeometry x="272.5" y="-30" width="255" height="160" as="geometry" />
        </mxCell>
        <mxCell id="3nwZLt_dr9k0LihJyEEM-2" value="- concerts : List&lt;Concert&gt;&#xa;- bands : List&lt;Band&gt;&#xa;- income : BigDecimal&#xa;" style="text;strokeColor=none;fillColor=none;align=left;verticalAlign=top;spacingLeft=4;spacingRight=4;overflow=hidden;rotatable=0;points=[[0,0.5],[1,0.5]];portConstraint=eastwest;" vertex="1" parent="3nwZLt_dr9k0LihJyEEM-1">
          <mxGeometry y="26" width="255" height="54" as="geometry" />
        </mxCell>
        <mxCell id="3nwZLt_dr9k0LihJyEEM-3" value="" style="line;strokeWidth=1;fillColor=none;align=left;verticalAlign=middle;spacingTop=-1;spacingLeft=3;spacingRight=3;rotatable=0;labelPosition=right;points=[];portConstraint=eastwest;" vertex="1" parent="3nwZLt_dr9k0LihJyEEM-1">
          <mxGeometry y="80" width="255" height="8" as="geometry" />
        </mxCell>
        <mxCell id="3nwZLt_dr9k0LihJyEEM-4" value="+ addBand(Band) : void&#xa;+ addConcert(band, int, ConcertType) : void&#xa;+ calculateIncom() : void&#xa;+ terminateOutdoor(Outdoor) : void&#xa;" style="text;strokeColor=none;fillColor=none;align=left;verticalAlign=top;spacingLeft=4;spacingRight=4;overflow=hidden;rotatable=0;points=[[0,0.5],[1,0.5]];portConstraint=eastwest;" vertex="1" parent="3nwZLt_dr9k0LihJyEEM-1">
          <mxGeometry y="88" width="255" height="72" as="geometry" />
        </mxCell>
        <mxCell id="3nwZLt_dr9k0LihJyEEM-5" value="Concert" style="swimlane;fontStyle=3;align=center;verticalAlign=top;childLayout=stackLayout;horizontal=1;startSize=26;horizontalStack=0;resizeParent=1;resizeParentMax=0;resizeLast=0;collapsible=1;marginBottom=0;" vertex="1" parent="1">
          <mxGeometry x="320" y="170" width="160" height="240" as="geometry" />
        </mxCell>
        <mxCell id="3nwZLt_dr9k0LihJyEEM-6" value="- mainBand: Band&#xa;- warmUpBamd : Band&#xa;- capacity : int&#xa;- style : Style&#xa;- ticketPrice : BigDecimal&#xa;- beerPrice : BigDecimal&#xa;- soldTicket : int&#xa;- soldBeer : int&#xa;- duration : double&#xa;" style="text;strokeColor=none;fillColor=none;align=left;verticalAlign=top;spacingLeft=4;spacingRight=4;overflow=hidden;rotatable=0;points=[[0,0.5],[1,0.5]];portConstraint=eastwest;" vertex="1" parent="3nwZLt_dr9k0LihJyEEM-5">
          <mxGeometry y="26" width="160" height="134" as="geometry" />
        </mxCell>
        <mxCell id="3nwZLt_dr9k0LihJyEEM-7" value="" style="line;strokeWidth=1;fillColor=none;align=left;verticalAlign=middle;spacingTop=-1;spacingLeft=3;spacingRight=3;rotatable=0;labelPosition=right;points=[];portConstraint=eastwest;" vertex="1" parent="3nwZLt_dr9k0LihJyEEM-5">
          <mxGeometry y="160" width="160" height="20" as="geometry" />
        </mxCell>
        <mxCell id="3nwZLt_dr9k0LihJyEEM-8" value="+ sellTicket() : void&#xa;+ sellBeer() : void&#xa;+ getIncome() : BigDecimal&#xa;" style="text;strokeColor=none;fillColor=none;align=left;verticalAlign=top;spacingLeft=4;spacingRight=4;overflow=hidden;rotatable=0;points=[[0,0.5],[1,0.5]];portConstraint=eastwest;" vertex="1" parent="3nwZLt_dr9k0LihJyEEM-5">
          <mxGeometry y="180" width="160" height="60" as="geometry" />
        </mxCell>
        <mxCell id="3nwZLt_dr9k0LihJyEEM-9" value="" style="endArrow=diamondThin;endFill=1;endSize=24;html=1;rounded=0;exitX=0.5;exitY=0;exitDx=0;exitDy=0;" edge="1" parent="1" source="3nwZLt_dr9k0LihJyEEM-5" target="3nwZLt_dr9k0LihJyEEM-1">
          <mxGeometry width="160" relative="1" as="geometry">
            <mxPoint x="340" y="390" as="sourcePoint" />
            <mxPoint x="500" y="390" as="targetPoint" />
          </mxGeometry>
        </mxCell>
        <mxCell id="3nwZLt_dr9k0LihJyEEM-10" value="Indoor" style="swimlane;fontStyle=1;align=center;verticalAlign=top;childLayout=stackLayout;horizontal=1;startSize=26;horizontalStack=0;resizeParent=1;resizeParentMax=0;resizeLast=0;collapsible=1;marginBottom=0;" vertex="1" parent="1">
          <mxGeometry x="80" y="460" width="160" height="86" as="geometry" />
        </mxCell>
        <mxCell id="3nwZLt_dr9k0LihJyEEM-11" value="-----------" style="text;strokeColor=none;fillColor=none;align=left;verticalAlign=top;spacingLeft=4;spacingRight=4;overflow=hidden;rotatable=0;points=[[0,0.5],[1,0.5]];portConstraint=eastwest;" vertex="1" parent="3nwZLt_dr9k0LihJyEEM-10">
          <mxGeometry y="26" width="160" height="26" as="geometry" />
        </mxCell>
        <mxCell id="3nwZLt_dr9k0LihJyEEM-12" value="" style="line;strokeWidth=1;fillColor=none;align=left;verticalAlign=middle;spacingTop=-1;spacingLeft=3;spacingRight=3;rotatable=0;labelPosition=right;points=[];portConstraint=eastwest;" vertex="1" parent="3nwZLt_dr9k0LihJyEEM-10">
          <mxGeometry y="52" width="160" height="8" as="geometry" />
        </mxCell>
        <mxCell id="3nwZLt_dr9k0LihJyEEM-13" value="------------" style="text;strokeColor=none;fillColor=none;align=left;verticalAlign=top;spacingLeft=4;spacingRight=4;overflow=hidden;rotatable=0;points=[[0,0.5],[1,0.5]];portConstraint=eastwest;" vertex="1" parent="3nwZLt_dr9k0LihJyEEM-10">
          <mxGeometry y="60" width="160" height="26" as="geometry" />
        </mxCell>
        <mxCell id="3nwZLt_dr9k0LihJyEEM-14" value="Outdoor" style="swimlane;fontStyle=1;align=center;verticalAlign=top;childLayout=stackLayout;horizontal=1;startSize=26;horizontalStack=0;resizeParent=1;resizeParentMax=0;resizeLast=0;collapsible=1;marginBottom=0;" vertex="1" parent="1">
          <mxGeometry x="320" y="460" width="160" height="86" as="geometry" />
        </mxCell>
        <mxCell id="3nwZLt_dr9k0LihJyEEM-15" value="-----------" style="text;strokeColor=none;fillColor=none;align=left;verticalAlign=top;spacingLeft=4;spacingRight=4;overflow=hidden;rotatable=0;points=[[0,0.5],[1,0.5]];portConstraint=eastwest;" vertex="1" parent="3nwZLt_dr9k0LihJyEEM-14">
          <mxGeometry y="26" width="160" height="26" as="geometry" />
        </mxCell>
        <mxCell id="3nwZLt_dr9k0LihJyEEM-16" value="" style="line;strokeWidth=1;fillColor=none;align=left;verticalAlign=middle;spacingTop=-1;spacingLeft=3;spacingRight=3;rotatable=0;labelPosition=right;points=[];portConstraint=eastwest;" vertex="1" parent="3nwZLt_dr9k0LihJyEEM-14">
          <mxGeometry y="52" width="160" height="8" as="geometry" />
        </mxCell>
        <mxCell id="3nwZLt_dr9k0LihJyEEM-17" value="------------" style="text;strokeColor=none;fillColor=none;align=left;verticalAlign=top;spacingLeft=4;spacingRight=4;overflow=hidden;rotatable=0;points=[[0,0.5],[1,0.5]];portConstraint=eastwest;" vertex="1" parent="3nwZLt_dr9k0LihJyEEM-14">
          <mxGeometry y="60" width="160" height="26" as="geometry" />
        </mxCell>
        <mxCell id="3nwZLt_dr9k0LihJyEEM-18" value="Festival" style="swimlane;fontStyle=1;align=center;verticalAlign=top;childLayout=stackLayout;horizontal=1;startSize=26;horizontalStack=0;resizeParent=1;resizeParentMax=0;resizeLast=0;collapsible=1;marginBottom=0;" vertex="1" parent="1">
          <mxGeometry x="560" y="460" width="160" height="86" as="geometry" />
        </mxCell>
        <mxCell id="3nwZLt_dr9k0LihJyEEM-19" value="--------" style="text;strokeColor=none;fillColor=none;align=left;verticalAlign=top;spacingLeft=4;spacingRight=4;overflow=hidden;rotatable=0;points=[[0,0.5],[1,0.5]];portConstraint=eastwest;" vertex="1" parent="3nwZLt_dr9k0LihJyEEM-18">
          <mxGeometry y="26" width="160" height="26" as="geometry" />
        </mxCell>
        <mxCell id="3nwZLt_dr9k0LihJyEEM-20" value="" style="line;strokeWidth=1;fillColor=none;align=left;verticalAlign=middle;spacingTop=-1;spacingLeft=3;spacingRight=3;rotatable=0;labelPosition=right;points=[];portConstraint=eastwest;" vertex="1" parent="3nwZLt_dr9k0LihJyEEM-18">
          <mxGeometry y="52" width="160" height="8" as="geometry" />
        </mxCell>
        <mxCell id="3nwZLt_dr9k0LihJyEEM-21" value="---------" style="text;strokeColor=none;fillColor=none;align=left;verticalAlign=top;spacingLeft=4;spacingRight=4;overflow=hidden;rotatable=0;points=[[0,0.5],[1,0.5]];portConstraint=eastwest;" vertex="1" parent="3nwZLt_dr9k0LihJyEEM-18">
          <mxGeometry y="60" width="160" height="26" as="geometry" />
        </mxCell>
        <mxCell id="3nwZLt_dr9k0LihJyEEM-22" value="" style="endArrow=block;endSize=16;endFill=0;html=1;rounded=0;" edge="1" parent="1" source="3nwZLt_dr9k0LihJyEEM-10" target="3nwZLt_dr9k0LihJyEEM-5">
          <mxGeometry width="160" relative="1" as="geometry">
            <mxPoint x="340" y="390" as="sourcePoint" />
            <mxPoint x="500" y="390" as="targetPoint" />
          </mxGeometry>
        </mxCell>
        <mxCell id="3nwZLt_dr9k0LihJyEEM-23" value="" style="endArrow=block;endSize=16;endFill=0;html=1;rounded=0;" edge="1" parent="1" source="3nwZLt_dr9k0LihJyEEM-14" target="3nwZLt_dr9k0LihJyEEM-5">
          <mxGeometry width="160" relative="1" as="geometry">
            <mxPoint x="340" y="390" as="sourcePoint" />
            <mxPoint x="500" y="390" as="targetPoint" />
          </mxGeometry>
        </mxCell>
        <mxCell id="3nwZLt_dr9k0LihJyEEM-24" value="" style="endArrow=block;endSize=16;endFill=0;html=1;rounded=0;" edge="1" parent="1" source="3nwZLt_dr9k0LihJyEEM-18" target="3nwZLt_dr9k0LihJyEEM-5">
          <mxGeometry width="160" relative="1" as="geometry">
            <mxPoint x="340" y="390" as="sourcePoint" />
            <mxPoint x="500" y="390" as="targetPoint" />
          </mxGeometry>
        </mxCell>
        <mxCell id="3nwZLt_dr9k0LihJyEEM-25" value="Band" style="swimlane;fontStyle=1;align=center;verticalAlign=top;childLayout=stackLayout;horizontal=1;startSize=26;horizontalStack=0;resizeParent=1;resizeParentMax=0;resizeLast=0;collapsible=1;marginBottom=0;" vertex="1" parent="1">
          <mxGeometry x="610" y="238" width="160" height="104" as="geometry" />
        </mxCell>
        <mxCell id="3nwZLt_dr9k0LihJyEEM-26" value="- name : String&#xa;- style : Style&#xa;" style="text;strokeColor=none;fillColor=none;align=left;verticalAlign=top;spacingLeft=4;spacingRight=4;overflow=hidden;rotatable=0;points=[[0,0.5],[1,0.5]];portConstraint=eastwest;" vertex="1" parent="3nwZLt_dr9k0LihJyEEM-25">
          <mxGeometry y="26" width="160" height="44" as="geometry" />
        </mxCell>
        <mxCell id="3nwZLt_dr9k0LihJyEEM-27" value="" style="line;strokeWidth=1;fillColor=none;align=left;verticalAlign=middle;spacingTop=-1;spacingLeft=3;spacingRight=3;rotatable=0;labelPosition=right;points=[];portConstraint=eastwest;" vertex="1" parent="3nwZLt_dr9k0LihJyEEM-25">
          <mxGeometry y="70" width="160" height="8" as="geometry" />
        </mxCell>
        <mxCell id="3nwZLt_dr9k0LihJyEEM-28" value="--------" style="text;strokeColor=none;fillColor=none;align=left;verticalAlign=top;spacingLeft=4;spacingRight=4;overflow=hidden;rotatable=0;points=[[0,0.5],[1,0.5]];portConstraint=eastwest;" vertex="1" parent="3nwZLt_dr9k0LihJyEEM-25">
          <mxGeometry y="78" width="160" height="26" as="geometry" />
        </mxCell>
        <mxCell id="3nwZLt_dr9k0LihJyEEM-29" value="&lt;&lt;Enum&gt;&gt;&#xa;Style" style="swimlane;fontStyle=1;align=center;verticalAlign=top;childLayout=stackLayout;horizontal=1;startSize=40;horizontalStack=0;resizeParent=1;resizeParentMax=0;resizeLast=0;collapsible=1;marginBottom=0;" vertex="1" parent="1">
          <mxGeometry x="610" y="30" width="160" height="108" as="geometry" />
        </mxCell>
        <mxCell id="3nwZLt_dr9k0LihJyEEM-30" value="+ JAZZ&#xa;+ POP&#xa;+ ROCK&#xa;" style="text;strokeColor=none;fillColor=none;align=left;verticalAlign=top;spacingLeft=4;spacingRight=4;overflow=hidden;rotatable=0;points=[[0,0.5],[1,0.5]];portConstraint=eastwest;" vertex="1" parent="3nwZLt_dr9k0LihJyEEM-29">
          <mxGeometry y="40" width="160" height="60" as="geometry" />
        </mxCell>
        <mxCell id="3nwZLt_dr9k0LihJyEEM-31" value="" style="line;strokeWidth=1;fillColor=none;align=left;verticalAlign=middle;spacingTop=-1;spacingLeft=3;spacingRight=3;rotatable=0;labelPosition=right;points=[];portConstraint=eastwest;" vertex="1" parent="3nwZLt_dr9k0LihJyEEM-29">
          <mxGeometry y="100" width="160" height="8" as="geometry" />
        </mxCell>
        <mxCell id="3nwZLt_dr9k0LihJyEEM-33" value="" style="endArrow=diamondThin;endFill=1;endSize=24;html=1;rounded=0;" edge="1" parent="1" source="3nwZLt_dr9k0LihJyEEM-29" target="3nwZLt_dr9k0LihJyEEM-25">
          <mxGeometry width="160" relative="1" as="geometry">
            <mxPoint x="340" y="390" as="sourcePoint" />
            <mxPoint x="500" y="390" as="targetPoint" />
          </mxGeometry>
        </mxCell>
        <mxCell id="3nwZLt_dr9k0LihJyEEM-34" value="" style="endArrow=diamondThin;endFill=0;endSize=24;html=1;rounded=0;" edge="1" parent="1" source="3nwZLt_dr9k0LihJyEEM-25" target="3nwZLt_dr9k0LihJyEEM-5">
          <mxGeometry width="160" relative="1" as="geometry">
            <mxPoint x="340" y="390" as="sourcePoint" />
            <mxPoint x="500" y="390" as="targetPoint" />
          </mxGeometry>
        </mxCell>
        <mxCell id="3nwZLt_dr9k0LihJyEEM-35" value="" style="endArrow=diamondThin;endFill=0;endSize=24;html=1;rounded=0;" edge="1" parent="1" source="3nwZLt_dr9k0LihJyEEM-29" target="3nwZLt_dr9k0LihJyEEM-5">
          <mxGeometry width="160" relative="1" as="geometry">
            <mxPoint x="340" y="390" as="sourcePoint" />
            <mxPoint x="500" y="390" as="targetPoint" />
          </mxGeometry>
        </mxCell>
        <mxCell id="3nwZLt_dr9k0LihJyEEM-37" value="" style="endArrow=diamondThin;endFill=0;endSize=24;html=1;rounded=0;" edge="1" parent="1" source="3nwZLt_dr9k0LihJyEEM-25" target="3nwZLt_dr9k0LihJyEEM-1">
          <mxGeometry width="160" relative="1" as="geometry">
            <mxPoint x="340" y="270" as="sourcePoint" />
            <mxPoint x="500" y="270" as="targetPoint" />
          </mxGeometry>
        </mxCell>
        <mxCell id="3nwZLt_dr9k0LihJyEEM-38" value="&lt;&lt;Enum&gt;&gt;&#xa;ConcertType" style="swimlane;fontStyle=1;align=center;verticalAlign=top;childLayout=stackLayout;horizontal=1;startSize=40;horizontalStack=0;resizeParent=1;resizeParentMax=0;resizeLast=0;collapsible=1;marginBottom=0;" vertex="1" parent="1">
          <mxGeometry x="30" y="236" width="160" height="108" as="geometry" />
        </mxCell>
        <mxCell id="3nwZLt_dr9k0LihJyEEM-39" value="+ INDOOR&#xa;+ OUTDOOR&#xa;+ FESTIVAL&#xa;" style="text;strokeColor=none;fillColor=none;align=left;verticalAlign=top;spacingLeft=4;spacingRight=4;overflow=hidden;rotatable=0;points=[[0,0.5],[1,0.5]];portConstraint=eastwest;" vertex="1" parent="3nwZLt_dr9k0LihJyEEM-38">
          <mxGeometry y="40" width="160" height="60" as="geometry" />
        </mxCell>
        <mxCell id="3nwZLt_dr9k0LihJyEEM-40" value="" style="line;strokeWidth=1;fillColor=none;align=left;verticalAlign=middle;spacingTop=-1;spacingLeft=3;spacingRight=3;rotatable=0;labelPosition=right;points=[];portConstraint=eastwest;" vertex="1" parent="3nwZLt_dr9k0LihJyEEM-38">
          <mxGeometry y="100" width="160" height="8" as="geometry" />
        </mxCell>
        <mxCell id="3nwZLt_dr9k0LihJyEEM-44" value="" style="endArrow=diamondThin;endFill=1;endSize=24;html=1;rounded=0;" edge="1" parent="1" source="3nwZLt_dr9k0LihJyEEM-38" target="3nwZLt_dr9k0LihJyEEM-5">
          <mxGeometry width="160" relative="1" as="geometry">
            <mxPoint x="320" y="270" as="sourcePoint" />
            <mxPoint x="480" y="270" as="targetPoint" />
          </mxGeometry>
        </mxCell>
      </root>
    </mxGraphModel>
  </diagram>
</mxfile>
